# xmcd
#
# Track frame offsets: 
#        150
#        13824
#        29101
#        46416
#        61399
#        76325
#        91878
#        104554
#        119321
#        134997
#        150148
#        165829
#        186305
#        199581
#        211657
#        228622
#        245404
#        260634
#        275641
#        297902
#        313346
#        329321
#
# Disc length: 4615 seconds
#
# Revision: 0
# Processed by: cddbd v1.5.2PL0 Copyright (c) Steve Scherf et al.
# Submitted via: ExactAudioCopy v1.3
#
DISCID=45120516
DTITLE=Various  - Hit Country Australia Vol 2
DYEAR=2017
DGENRE=Country
TTITLE0=Lee Kernaghan Feat TWBS - Damn Good Mates
TTITLE1=Drew McAlister - Coming Your Way
TTITLE2=Sunny Cowgirls - Rev It Up
TTITLE3=The Wolfe Brothers - Throw Em Back
TTITLE4=Adam Brand - Drunk
TTITLE5=Jody Direen - Spitfire
TTITLE6=Caitlyn Shadbolt - Bad
TTITLE7=Mel Dyer - Save My Cents
TTITLE8=Kaylee Bell - Next Somebody
TTITLE9=Route 33 - Last First Kiss
TTITLE10=Gord Bamford - Tin Roof
TTITLE11=Travis Collins and Amber Lawrence - Our Backyard
TTITLE12=Fanny Lumsden - Roll On
TTITLE13=Aleyce Simmonds - On My Terms
TTITLE14=Paddy McHugh - City Bound Trains
TTITLE15=Troy Kemp - A Little More Country
TTITLE16=Casey Barnes - Keep Me Comign Back
TTITLE17=Hayley Jensen - Summertime Soundtrack
TTITLE18=Jetty Road - You Need To Run
TTITLE19=OShea - Starting Over
TTITLE20=Baylou - Closing This Memory Down
TTITLE21=Christie Lamb - Judgement Day
EXTD=
EXTT0=
EXTT1=
EXTT2=
EXTT3=
EXTT4=
EXTT5=
EXTT6=
EXTT7=
EXTT8=
EXTT9=
EXTT10=
EXTT11=
EXTT12=
EXTT13=
EXTT14=
EXTT15=
EXTT16=
EXTT17=
EXTT18=
EXTT19=
EXTT20=
EXTT21=
PLAYORDER=
